<?xml version="1.0" standalone="no"?><!DOCTYPE svg PUBLIC "-//W3C//DTD SVG 1.1//EN" "http://www.w3.org/Graphics/SVG/1.1/DTD/svg11.dtd"><svg t="1614078241586" class="icon" viewBox="0 0 1457 1024" version="1.1" xmlns="http://www.w3.org/2000/svg" p-id="661" xmlns:xlink="http://www.w3.org/1999/xlink" width="364.25" height="256"><defs><style type="text/css"></style></defs><path d="M1140.184615 437.169231C984.615385 462.769231 866.461538 596.676923 866.461538 758.153846c0 35.446154 5.907692 68.923077 15.753847 98.461539l-5.907693 9.846153H39.384615c-45.292308-13.784615-49.230769-39.384615-9.846153-78.76923s102.4-104.369231 187.076923-196.923077c19.692308-25.6 43.323077-25.6 68.923077 0l88.615384 88.615384c19.692308 19.692308 39.384615 13.784615 59.076923-19.692307s157.538462-230.4 413.538462-590.769231c33.476923-45.292308 63.015385-45.292308 88.615384 0S1029.907692 236.307692 1142.153846 433.230769l-1.969231 3.938462zM114.215385 216.615385C55.138462 216.615385 5.907692 169.353846 5.907692 108.307692 5.907692 49.230769 55.138462 0 114.215385 0s108.307692 49.230769 108.307692 108.307692S173.292308 216.615385 114.215385 216.615385z" p-id="662"></path><path d="M1201.230769 512c141.784615 0 256 114.215385 256 256s-114.215385 256-256 256-256-114.215385-256-256 114.215385-256 256-256z m-19.692307 137.846154v157.538461c0 11.815385 7.876923 19.692308 19.692307 19.692308s19.692308-9.846154 19.692308-19.692308v-157.538461c0-11.815385-7.876923-19.692308-19.692308-19.692308s-19.692308 9.846154-19.692307 19.692308z m19.692307 256c11.815385 0 19.692308-7.876923 19.692308-19.692308s-7.876923-19.692308-19.692308-19.692308-19.692308 7.876923-19.692307 19.692308 7.876923 19.692308 19.692307 19.692308z" p-id="663"></path></svg>