<?xml version="1.0" standalone="no"?><!DOCTYPE svg PUBLIC "-//W3C//DTD SVG 1.1//EN" "http://www.w3.org/Graphics/SVG/1.1/DTD/svg11.dtd"><svg t="1610534179904" class="icon" viewBox="0 0 1024 1024" version="1.1" xmlns="http://www.w3.org/2000/svg" p-id="2568" xmlns:xlink="http://www.w3.org/1999/xlink" width="32" height="32"><defs><style type="text/css"></style></defs><path d="M512 160c194.1 0 352 157.9 352 352S706.1 864 512 864 160 706.1 160 512s157.9-352 352-352m0-96C264.6 64 64 264.6 64 512s200.6 448 448 448 448-200.6 448-448S759.4 64 512 64z" fill="#ffffff" p-id="2569"></path><path d="M659.2 697.6c-9.8 0-19.7-3.8-27.2-11.2L337.6 392c-15-15-15-39.3 0-54.3s39.3-15 54.3 0L686.4 632c15 15 15 39.3 0 54.3-7.5 7.5-17.4 11.3-27.2 11.3z" fill="#ffffff" p-id="2570"></path><path d="M364.8 697.6c-9.8 0-19.7-3.8-27.2-11.2-15-15-15-39.3 0-54.3L632 337.7c15-15 39.3-14.9 54.3 0 15 15 15 39.3 0 54.3L392 686.3c-7.5 7.5-17.4 11.3-27.2 11.3z" fill="#ffffff" p-id="2571"></path></svg>