<svg xmlns="http://www.w3.org/2000/svg" width="29.464" height="24" viewBox="0 0 29.464 24">
  <g id="微信hover" transform="translate(-13.2 -106.9)">
    <path id="路径_1000" data-name="路径 1000" d="M427.736,379.115c0-4.031-4.034-7.315-8.562-7.315-4.8,0-8.574,3.286-8.574,7.315s3.777,7.315,8.574,7.315a12.733,12.733,0,0,0,3.026-.505l2.764,1.513-.759-2.518C426.228,383.4,427.736,381.387,427.736,379.115ZM416.521,378a1.142,1.142,0,1,1,1.142-1.142A1.142,1.142,0,0,1,416.521,378Zm5.547-.009a1.142,1.142,0,1,1,1.142-1.142A1.142,1.142,0,0,1,422.069,377.987Z" transform="translate(-385.072 -256.537)" fill="#00c800"/>
    <path id="路径_1001" data-name="路径 1001" d="M23.281,106.9c-5.542,0-10.081,3.777-10.081,8.574,0,2.769,1.51,5.042,4.034,6.806l-1.008,3.032,3.523-1.767a17.328,17.328,0,0,0,3.532.505c.317,0,.631-.014.942-.04a7.5,7.5,0,0,1-.311-2.113c0-4.405,3.783-7.98,8.571-7.98a8.4,8.4,0,0,1,.971.06C32.58,109.918,28.237,106.9,23.281,106.9Zm-3.386,6.918a1.37,1.37,0,1,1,1.37-1.37A1.371,1.371,0,0,1,19.895,113.818Zm7.04,0a1.37,1.37,0,1,1,1.37-1.37A1.371,1.371,0,0,1,26.935,113.818Z" transform="translate(0 0)" fill="#00c800"/>
  </g>
</svg>
