<svg xmlns="http://www.w3.org/2000/svg" width="14.038" height="26" viewBox="0 0 14.038 26">
  <path id="hover手机" d="M250.307,6.6h-7.375c-1.786,0-3.331.823-3.331,2.727v20.1a3.194,3.194,0,0,0,3.331,3.17h7.378a3.351,3.351,0,0,0,3.329-3.449V9.165C253.638,7.382,252.21,6.6,250.307,6.6Zm-3.46.423a.226.226,0,1,1-.226.226A.227.227,0,0,1,246.847,7.023ZM245.7,8.232a.24.24,0,0,1,.238-.238h1.94a.24.24,0,0,1,.238.238V8.25a.24.24,0,0,1-.238.238h-1.94a.24.24,0,0,1-.238-.238Zm-.733-.21a.226.226,0,1,1-.226.226A.226.226,0,0,1,244.966,8.022Zm1.655,23.732a1.117,1.117,0,1,1,1.117-1.117A1.118,1.118,0,0,1,246.621,31.754Zm5.868-3.306a.331.331,0,0,1-.331.328H241.084a.331.331,0,0,1-.331-.331V9.637a.331.331,0,0,1,.331-.331h11.075a.331.331,0,0,1,.331.331V28.449Z" transform="translate(-239.6 -6.6)" fill="#c12e37"/>
</svg>
