<?xml version="1.0" standalone="no"?><!DOCTYPE svg PUBLIC "-//W3C//DTD SVG 1.1//EN" "http://www.w3.org/Graphics/SVG/1.1/DTD/svg11.dtd"><svg t="1617540106033" class="icon" viewBox="0 0 1024 1024" version="1.1" xmlns="http://www.w3.org/2000/svg" p-id="2133" xmlns:xlink="http://www.w3.org/1999/xlink" width="200" height="200"><defs><style type="text/css"></style></defs><path d="M638.784 32a31.232 31.232 0 0 1 15.36 3.2c3.2 1.536 6.144 3.648 8.704 6.208l146.112 146.304 109.696 109.632a31.36 31.36 0 0 1 9.408 22.4l-0.064 0.448V896a96 96 0 0 1-96 96H192A96 96 0 0 1 96 896V128A96 96 0 0 1 192 32z m-30.784 64H192a32 32 0 0 0-32 32v768a32 32 0 0 0 32 32h640a32 32 0 0 0 32-32V352H640a32 32 0 0 1-31.488-26.24L608 320V96z m64 45.248V288h146.688l-49.536-49.6L672 141.248z" p-id="2134"></path><path d="M640 800a32 32 0 0 1 5.76 63.488L640 864H256a32 32 0 0 1-5.76-63.488L256 800h384z" p-id="2135"></path></svg>