<svg xmlns="http://www.w3.org/2000/svg" width="201.751" height="175.719" viewBox="0 0 201.751 175.719">
  <g id="组_921" data-name="组 921" transform="translate(-202 -242)">
    <path id="路径_905" data-name="路径 905" d="M403.751,294.065H202V248.508A6.527,6.527,0,0,1,208.508,242h72.63a6.523,6.523,0,0,1,5.922,3.775l8.558,11.975a6.523,6.523,0,0,0,5.922,3.775h95.7a6.527,6.527,0,0,1,6.508,6.508Z" fill="#57b5ff"/>
    <path id="路径_906" data-name="路径 906" d="M397.243,525.654H208.508A6.527,6.527,0,0,1,202,519.146V402H403.751V519.146A6.527,6.527,0,0,1,397.243,525.654Z" transform="translate(0 -107.935)" fill="#bfeaff"/>
    <path id="路径_907" data-name="路径 907" d="M417.719,368.27H242v-9.762A6.527,6.527,0,0,1,248.508,352h162.7a6.527,6.527,0,0,1,6.508,6.508Z" transform="translate(-26.984 -74.205)" fill="#fff"/>
    <path id="路径_908" data-name="路径 908" d="M503.258,263.27H483.734a6.491,6.491,0,0,1-5.272-2.7L468.7,247h24.373a3.2,3.2,0,0,1,2.636,1.367l8.884,12.333A1.633,1.633,0,0,1,503.258,263.27Z" transform="translate(-179.915 -3.373)" fill="#bfeaff"/>
  </g>
</svg>
