<svg xmlns="http://www.w3.org/2000/svg" xmlns:xlink="http://www.w3.org/1999/xlink" width="110" height="110" viewBox="0 0 110 110">
  <defs>
    <filter id="矩形_2293" x="0" y="0" width="110" height="110" filterUnits="userSpaceOnUse">
      <feOffset dy="10" input="SourceAlpha"/>
      <feGaussianBlur stdDeviation="10" result="blur"/>
      <feFlood flood-color="#c12e37" flood-opacity="0.29"/>
      <feComposite operator="in" in2="blur"/>
      <feComposite in="SourceGraphic"/>
    </filter>
  </defs>
  <g id="组_882" data-name="组 882" transform="translate(-9863 2401)">
    <g transform="matrix(1, 0, 0, 1, 9863, -2401)" filter="url(#矩形_2293)">
      <rect id="矩形_2293-2" data-name="矩形 2293" width="50" height="50" rx="8" transform="translate(30 20)" fill="#c12e37"/>
    </g>
    <g id="组_850" data-name="组 850" transform="translate(1246.783 -243.866)">
      <rect id="矩形_2270" data-name="矩形 2270" width="7" height="12" transform="translate(8676.217 -2115.134)" fill="#fff"/>
      <rect id="矩形_2271" data-name="矩形 2271" width="5.329" height="15.188" transform="matrix(0.695, -0.719, 0.719, 0.695, 8668.027, -2125.481)" fill="#fff"/>
      <rect id="矩形_2272" data-name="矩形 2272" width="5.329" height="18.386" rx="2.665" transform="matrix(-0.574, -0.819, 0.819, -0.574, 8657.735, -2114.142)" fill="#fcd8d8"/>
      <rect id="矩形_2269" data-name="矩形 2269" width="11" height="8" transform="translate(8674.217 -2105.134)" fill="#faacb1"/>
      <rect id="矩形_2292" data-name="矩形 2292" width="18" height="4" transform="translate(8670.217 -2100.134)" fill="#fff"/>
      <g id="椭圆_512" data-name="椭圆 512" transform="translate(8675.217 -2121.134)" fill="#faacb1" stroke="#fff" stroke-width="1">
        <circle cx="4.5" cy="4.5" r="4.5" stroke="none"/>
        <circle cx="4.5" cy="4.5" r="4" fill="none"/>
      </g>
      <g id="椭圆_513" data-name="椭圆 513" transform="translate(8666.217 -2130.134)" fill="#faacb1" stroke="#fff" stroke-width="1">
        <circle cx="4" cy="4" r="4" stroke="none"/>
        <circle cx="4" cy="4" r="3.5" fill="none"/>
      </g>
      <path id="路径_892" data-name="路径 892" d="M3.105,0" transform="translate(8653.906 -2116.915)" fill="none" stroke="#fff" stroke-width="2"/>
      <line id="直线_194" data-name="直线 194" x1="4.396" y2="3.297" transform="translate(8652.5 -2116.465)" fill="none" stroke="#fff" stroke-width="1"/>
    </g>
  </g>
</svg>
