<svg xmlns="http://www.w3.org/2000/svg" xmlns:xlink="http://www.w3.org/1999/xlink" width="110" height="110" viewBox="0 0 110 110">
  <defs>
    <filter id="矩形_2297" x="0" y="0" width="110" height="110" filterUnits="userSpaceOnUse">
      <feOffset dy="10" input="SourceAlpha"/>
      <feGaussianBlur stdDeviation="10" result="blur"/>
      <feFlood flood-color="#7949ec" flood-opacity="0.271"/>
      <feComposite operator="in" in2="blur"/>
      <feComposite in="SourceGraphic"/>
    </filter>
  </defs>
  <g id="组_884" data-name="组 884" transform="translate(-10261 2402)">
    <g transform="matrix(1, 0, 0, 1, 10261, -2402)" filter="url(#矩形_2297)">
      <rect id="矩形_2297-2" data-name="矩形 2297" width="50" height="50" rx="8" transform="translate(30 20)" fill="#9071d9"/>
    </g>
    <g id="组_851" data-name="组 851" transform="translate(10133.515 -2476.562)">
      <path id="路径_896" data-name="路径 896" d="M191.249,372.973H173.635a2.944,2.944,0,0,1-2.935-2.935v-4.4a2.944,2.944,0,0,1,2.935-2.935h17.615a2.944,2.944,0,0,1,2.935,2.935v4.4A2.944,2.944,0,0,1,191.249,372.973Z" transform="translate(0 -247.193)" fill="#d5c5f9"/>
      <path id="路径_897" data-name="路径 897" d="M191.249,628.973H173.635a2.944,2.944,0,0,1-2.935-2.935v-4.4a2.944,2.944,0,0,1,2.935-2.935h17.615a2.944,2.944,0,0,1,2.935,2.935v4.4A2.944,2.944,0,0,1,191.249,628.973Z" transform="translate(0 -494.385)" fill="#d7c9f8"/>
      <path id="路径_898" data-name="路径 898" d="M193.995,131.027a.9.9,0,0,1,0-1.686.282.282,0,0,0,.182-.323,4.547,4.547,0,0,0-.468-1.122.268.268,0,0,0-.341-.1.9.9,0,0,1-1.2-1.2.268.268,0,0,0-.1-.341,4.6,4.6,0,0,0-1.122-.468.275.275,0,0,0-.323.182.9.9,0,0,1-1.686,0,.282.282,0,0,0-.323-.182,4.546,4.546,0,0,0-1.122.468.268.268,0,0,0-.1.341.9.9,0,0,1-1.2,1.2.268.268,0,0,0-.341.1,4.6,4.6,0,0,0-.468,1.122.275.275,0,0,0,.182.323.9.9,0,0,1,0,1.686.282.282,0,0,0-.182.323,4.546,4.546,0,0,0,.468,1.122.268.268,0,0,0,.341.1.9.9,0,0,1,1.2,1.2.268.268,0,0,0,.1.341,4.6,4.6,0,0,0,1.122.468.275.275,0,0,0,.323-.182.9.9,0,0,1,1.686,0,.282.282,0,0,0,.323.182,4.547,4.547,0,0,0,1.122-.468.268.268,0,0,0,.1-.341.9.9,0,0,1,1.2-1.2.268.268,0,0,0,.341-.1,4.6,4.6,0,0,0,.468-1.122A.282.282,0,0,0,193.995,131.027Zm-4.214,1.359a2.2,2.2,0,1,1,2.2-2.2A2.2,2.2,0,0,1,189.78,132.386Zm2.2-15.413H172.9a2.2,2.2,0,0,1-2.2-2.2V108.9a2.2,2.2,0,0,1,2.2-2.2h19.084a2.2,2.2,0,0,1,2.2,2.2v5.873A2.208,2.208,0,0,1,191.982,116.973Zm-19.08-8.807a.733.733,0,0,0-.733.733v5.873a.733.733,0,0,0,.733.733h19.084a.733.733,0,0,0,.733-.733V108.9a.733.733,0,0,0-.733-.733H172.9Z" transform="translate(0 0)" fill="#fff"/>
      <path id="路径_899" data-name="路径 899" d="M183.175,372.973H172.9a2.2,2.2,0,0,1-2.2-2.2V364.9a2.2,2.2,0,0,1,2.2-2.2h19.084a2.2,2.2,0,0,1,2.2,2.2v5.869a.733.733,0,1,1-1.466,0V364.9a.733.733,0,0,0-.733-.733H172.9a.733.733,0,0,0-.733.733v5.873a.733.733,0,0,0,.733.733h10.276a.733.733,0,1,1,0,1.466Z" transform="translate(0 -247.193)" fill="#fff"/>
      <path id="路径_900" data-name="路径 900" d="M183.175,236.151H172.9a.733.733,0,0,1-.733-.733v-5.873a.733.733,0,0,1,.733-.733h10.273a.733.733,0,1,0,0-1.466H172.9a2.2,2.2,0,0,0-2.2,2.2v5.873a2.2,2.2,0,0,0,2.2,2.2h10.276a.731.731,0,0,0,.733-.733A.74.74,0,0,0,183.175,236.151Zm-8.807-19.817a.736.736,0,0,1-.733-.733v-1.469a.733.733,0,1,1,1.466,0V215.6A.731.731,0,0,1,174.367,216.335Zm0,8.807a.736.736,0,0,1-.733-.733V222.94a.733.733,0,1,1,1.466,0v1.469A.731.731,0,0,1,174.367,225.142Z" transform="translate(0 -103.029)" fill="#fff"/>
      <path id="路径_901" data-name="路径 901" d="M256.733,728.335A.736.736,0,0,1,256,727.6v-1.469a.733.733,0,0,1,1.466,0V727.6A.731.731,0,0,1,256.733,728.335Z" transform="translate(-82.365 -597.414)" fill="#fff"/>
      <path id="路径_902" data-name="路径 902" d="M558.368,236.166a.733.733,0,1,1,.733-.733A.736.736,0,0,1,558.368,236.166Zm-2.935,0a.733.733,0,1,1,.733-.733A.736.736,0,0,1,555.433,236.166Zm5.873,0a.733.733,0,1,1,.733-.733A.736.736,0,0,1,561.306,236.166Z" transform="translate(-370.789 -123.596)" fill="#fff"/>
    </g>
  </g>
</svg>
