<svg xmlns="http://www.w3.org/2000/svg" width="423.008" height="163" viewBox="0 0 423.008 163">
  <g id="圆透明" transform="translate(-905 960)">
    <path id="减去_45" data-name="减去 45" d="M257.743,120H33.257c-.17-2.533-.256-5.1-.256-7.643a113.049,113.049,0,0,1,2.286-22.644A111.665,111.665,0,0,1,52.213,49.537,112.809,112.809,0,0,1,101.71,8.83a112.034,112.034,0,0,1,21.117-6.547,113.737,113.737,0,0,1,45.345,0A111.959,111.959,0,0,1,208.4,19.189a112.7,112.7,0,0,1,40.759,49.434,111.681,111.681,0,0,1,6.555,21.09A113.042,113.042,0,0,1,258,112.356c0,2.543-.086,5.114-.256,7.643h0Z" transform="translate(872 -917)" fill="#fff" opacity="0.13"/>
    <path id="减去_46" data-name="减去 46" d="M112.5,120a112.134,112.134,0,0,1-61.72-18.4A112.982,112.982,0,0,1,27.055,80.734,112.364,112.364,0,0,1,9.991,54H215.008a112.365,112.365,0,0,1-17.064,26.734A112.984,112.984,0,0,1,174.219,101.6,112.134,112.134,0,0,1,112.5,120Z" transform="translate(1113 -1014)" fill="#fff" opacity="0.13"/>
  </g>
</svg>
