<svg xmlns="http://www.w3.org/2000/svg" xmlns:xlink="http://www.w3.org/1999/xlink" width="688" height="538" viewBox="0 0 688 538">
  <defs>
    <linearGradient id="linear-gradient" x1="0.5" x2="0.5" y2="1" gradientUnits="objectBoundingBox">
      <stop offset="0" stop-color="#f6f6f6" stop-opacity="0.188"/>
      <stop offset="1" stop-color="#f2f2f2"/>
    </linearGradient>
  </defs>
  <g id="vip1" transform="translate(-456 2212)">
    <path id="减去_47" data-name="减去 47" d="M720,749H44a6.007,6.007,0,0,1-6-6V217a6.007,6.007,0,0,1,6-6h1.809c66.834,46.262,195.463,75,335.691,75s268.857-28.739,335.691-75H720a6.007,6.007,0,0,1,6,6V743A6.007,6.007,0,0,1,720,749Z" transform="translate(418 -2423)" fill="#fff"/>
    <path id="交叉_1" data-name="交叉 1" d="M591.26,524.724c-74.389-88.789-148.416-176.909-175.315-209.38-12.613-19.734-11.222-38.88,0-52.339,16.551-20.428,65.586-78.694,87.335-105.131,9.344-11.349,16.577-12.684,22.24-12.684,0,0,121.541-.315,162.48-.134v26.428c-1.483-.084-3.084-.126-4.823-.126H543.307c-4.53,0-15.855-2.536-28.778,13.112-17.4,21.042-63.474,75.25-76.653,91.592-5.843,9.132-5.971,19.814,0,26.169C459.318,328.242,536.434,417,595.79,488.114c8.443,10.066,13.746,10.441,17.477,10.441,3.681,0,8.88-.134,17.478-10.441,18.245-21.88,37.977-45.211,57.255-67.881V461.58c-17.1,20.4-34.913,41.654-52.906,63.145-10.785,12.871-17.323,13.111-21.93,13.111C608.454,537.836,601.788,537.382,591.26,524.724ZM508.686,309.9l-1.338-1.735c-2.985-4.139-5.663-6.089-12.947-6.089h-.926V283.62h38.507c1.133,0,1.391,0,2.163,1.309l78.841,105.185L688,290.448v58.666c-26.86,34.864-61.909,79.647-74.81,97.636C594.014,420.047,526.036,334.383,508.686,309.9Z" transform="translate(456 -2212)" opacity="0.7" fill="url(#linear-gradient)"/>
  </g>
</svg>
